<?xml version="1.0" encoding="UTF-8" standalone="no"?>
<!-- Created with Inkscape (http://www.inkscape.org/) -->

<svg
   width="16.933325mm"
   height="16.933334mm"
   viewBox="0 0 16.933325 16.933334"
   version="1.1"
   id="svg1"
   inkscape:version="1.3.2 (091e20e, 2023-11-25, custom)"
   sodipodi:docname="MobileExample.svg"
   xmlns:inkscape="http://www.inkscape.org/namespaces/inkscape"
   xmlns:sodipodi="http://sodipodi.sourceforge.net/DTD/sodipodi-0.dtd"
   xmlns="http://www.w3.org/2000/svg"
   xmlns:svg="http://www.w3.org/2000/svg">
  <sodipodi:namedview
     id="namedview1"
     pagecolor="#ffffff"
     bordercolor="#000000"
     borderopacity="0.25"
     inkscape:showpageshadow="2"
     inkscape:pageopacity="0.0"
     inkscape:pagecheckerboard="0"
     inkscape:deskcolor="#d1d1d1"
     inkscape:document-units="mm"
     inkscape:zoom="1.4342733"
     inkscape:cx="369.17651"
     inkscape:cy="-176.74456"
     inkscape:window-width="1920"
     inkscape:window-height="1001"
     inkscape:window-x="-7"
     inkscape:window-y="-7"
     inkscape:window-maximized="1"
     inkscape:current-layer="layer1" />
  <defs
     id="defs1" />
  <g
     inkscape:label="Layer 1"
     inkscape:groupmode="layer"
     id="layer1"
     transform="translate(-123.32953,88.953405)">
    <rect
       style="fill:#000000;fill-opacity:0;stroke:#ffffff;stroke-width:0.835772;stroke-linecap:round;stroke-dasharray:none;stroke-opacity:1"
       id="rect17"
       width="16.097557"
       height="16.097561"
       x="123.74741"
       y="-88.535515"
       ry="0.16486531"
       inkscape:export-filename="UI\Z.svg"
       inkscape:export-xdpi="96"
       inkscape:export-ydpi="96" />
    <path
       id="rect18"
       style="fill:#ffffff;fill-opacity:1;stroke:#ffffff;stroke-width:0.131599;stroke-linecap:round;stroke-dasharray:none;stroke-opacity:1"
       d="m 130.09738,-86.852732 -0.88658,0.247188 c -0.15661,0.133947 -0.10482,0.884679 0.12896,1.757141 l 0.1598,0.600243 -0.15424,0.04133 c -0.53314,-0.07828 -0.91297,-0.05382 -0.94894,0.0804 l -0.0527,0.190668 -0.17629,0.04889 c -0.0493,0.0132 -0.0819,0.07126 -0.10172,0.167426 -0.0334,0.162133 -0.0255,0.428115 0.0202,0.754276 l -0.19491,0.47059 -0.53763,-0.141628 c -0.93064,-0.249363 -1.72295,-0.292992 -1.77571,-0.09611 l -0.1436,0.532277 -0.22906,0.854238 c -0.0528,0.196882 0.65409,0.55757 1.58472,0.806929 l 0.59974,0.159763 -0.0398,0.152963 c -0.33435,0.422558 -0.50367,0.764721 -0.40541,0.862971 l 0.13812,0.142216 -0.0454,0.17588 c -0.0132,0.04923 0.0211,0.105777 0.0945,0.171025 0.1237,0.110029 0.35812,0.238011 0.66343,0.361509 l 0.31099,0.401909 -0.39246,0.396197 c -0.68127,0.681275 -1.11281,1.348055 -0.96868,1.492183 l 0.38664,0.390735 0.62549,0.625261 c 0.14412,0.144129 0.80913,-0.289462 1.4904,-0.970725 l 0.4396,-0.439856 0.11259,0.112673 c 0.1988,0.500838 0.40959,0.819535 0.5438,0.783575 l 0.1923,-0.05099 0.12931,0.12906 c 0.0361,0.03603 0.10304,0.03449 0.19624,0.0036 0.15713,-0.05215 0.38584,-0.191778 0.64543,-0.394431 l 0.50304,-0.06738 0.14528,0.538331 c 0.24936,0.930639 0.6102,1.637285 0.80708,1.584529 l 0.54695,-0.147088 0.83994,-0.225597 c 0.19689,-0.05276 0.15447,-0.843129 -0.0949,-1.773757 l -0.16167,-0.601349 0.15461,-0.04196 c 0.53312,0.07829 0.91465,0.05605 0.9506,-0.07816 l 0.0505,-0.192762 0.17832,-0.04725 c 0.0493,-0.0132 0.0804,-0.07301 0.1002,-0.169156 0.0335,-0.162158 0.0256,-0.427615 -0.0201,-0.753776 l 0.19427,-0.470955 0.5398,0.143723 c 0.93064,0.249365 1.72142,0.291263 1.77418,0.09438 l 0.14298,-0.532644 6.2e-4,3.68e-4 0.22906,-0.854238 c 0.0528,-0.196883 -0.65473,-0.557934 -1.58536,-0.807294 l -0.59973,-0.159763 0.0404,-0.152594 c 0.33436,-0.422561 0.50352,-0.765217 0.40527,-0.86347 l -0.13846,-0.141586 0.0458,-0.176509 c 0.0132,-0.04923 -0.0211,-0.105776 -0.095,-0.170897 -0.12369,-0.110028 -0.3576,-0.238147 -0.66292,-0.361645 l -0.31085,-0.40141 0.39245,-0.396194 c 0.68128,-0.68128 1.11484,-1.34646 0.97071,-1.490588 l -0.38714,-0.390601 -0.62549,-0.625261 c -0.14413,-0.144126 -0.80912,0.28946 -1.49039,0.970723 l -0.43961,0.439858 -0.1126,-0.112673 c -0.1988,-0.500836 -0.40957,-0.819537 -0.54379,-0.783574 l -0.19231,0.051 -0.12931,-0.12906 c -0.0361,-0.03603 -0.10304,-0.03449 -0.19624,-0.0036 -0.15713,0.05214 -0.38534,0.191643 -0.64494,0.394299 l -0.50367,0.06701 -0.14515,-0.537831 c -0.24936,-0.930638 -0.61021,-1.637284 -0.80709,-1.584529 z m 1.30184,4.885554 a 1.5326868,1.5326868 0 0 1 1.87719,1.0838 1.5326868,1.5326868 0 0 1 -1.0838,1.877194 1.5326868,1.5326868 0 0 1 -1.8772,-1.083797 1.5326868,1.5326868 0 0 1 1.08381,-1.877197 z" />
  </g>
</svg>
