<?xml version="1.0" encoding="UTF-8" standalone="no"?>
<!-- Created with Inkscape (http://www.inkscape.org/) -->

<svg
   width="16.933317mm"
   height="16.933334mm"
   viewBox="0 0 16.933317 16.933334"
   version="1.1"
   id="svg1"
   inkscape:version="1.3.2 (091e20e, 2023-11-25, custom)"
   sodipodi:docname="MobileExample.svg"
   xmlns:inkscape="http://www.inkscape.org/namespaces/inkscape"
   xmlns:sodipodi="http://sodipodi.sourceforge.net/DTD/sodipodi-0.dtd"
   xmlns="http://www.w3.org/2000/svg"
   xmlns:svg="http://www.w3.org/2000/svg">
  <sodipodi:namedview
     id="namedview1"
     pagecolor="#ffffff"
     bordercolor="#000000"
     borderopacity="0.25"
     inkscape:showpageshadow="2"
     inkscape:pageopacity="0.0"
     inkscape:pagecheckerboard="0"
     inkscape:deskcolor="#d1d1d1"
     inkscape:document-units="mm"
     inkscape:zoom="2.0283687"
     inkscape:cx="446.91085"
     inkscape:cy="-186.60315"
     inkscape:window-width="1920"
     inkscape:window-height="1001"
     inkscape:window-x="-7"
     inkscape:window-y="-7"
     inkscape:window-maximized="1"
     inkscape:current-layer="layer1" />
  <defs
     id="defs1" />
  <g
     inkscape:label="Layer 1"
     inkscape:groupmode="layer"
     id="layer1"
     transform="translate(-143.06542,57.517016)">
    <rect
       style="fill:#000000;fill-opacity:0;stroke:#ffffff;stroke-width:0.835772;stroke-linecap:round;stroke-dasharray:none;stroke-opacity:1"
       id="rect16"
       width="16.097557"
       height="16.097561"
       x="143.48329"
       y="-57.099129"
       ry="0.16486531"
       inkscape:export-filename="UI\X.svg"
       inkscape:export-xdpi="96"
       inkscape:export-ydpi="96" />
    <path
       d="m 152.30155,-49.606503 2.217,3.306453 q 0.92184,1.37134 1.36372,1.737031 0.44949,0.358072 1.13516,0.396165 v 0.281886 h -4.434 v -0.281886 q 0.44188,-0.0076 0.6552,-0.09142 0.15999,-0.06857 0.25903,-0.205701 0.10666,-0.144753 0.10666,-0.289505 0,-0.175227 -0.0686,-0.350454 -0.0533,-0.129515 -0.41902,-0.670432 l -1.75227,-2.651258 -2.16367,2.773154 q -0.34283,0.441877 -0.4114,0.594248 -0.0686,0.144752 -0.0686,0.304742 0,0.243794 0.2057,0.403783 0.2057,0.15999 0.78471,0.182846 v 0.281886 h -3.66453 v -0.281886 q 0.38855,-0.03809 0.67044,-0.15999 0.47235,-0.198082 0.89898,-0.533299 0.42664,-0.335216 0.97518,-1.028505 l 2.43794,-3.077896 -2.03416,-2.978855 q -0.83042,-1.21135 -1.40943,-1.584659 -0.57901,-0.380928 -1.33325,-0.403784 v -0.281886 h 4.77684 v 0.281886 q -0.60949,0.02286 -0.83804,0.198083 -0.22094,0.175227 -0.22094,0.388546 0,0.281887 0.36569,0.822804 l 1.58466,2.369371 1.83607,-2.32366 q 0.31998,-0.411402 0.38855,-0.563773 0.0762,-0.152371 0.0762,-0.312361 0,-0.159989 -0.0914,-0.281886 -0.11428,-0.15999 -0.28951,-0.220938 -0.17522,-0.06857 -0.72376,-0.07619 v -0.281886 h 3.66453 v 0.281886 q -0.43426,0.02286 -0.70853,0.137134 -0.4114,0.175227 -0.75424,0.472351 -0.34283,0.297123 -0.96755,1.097072 z"
       id="text17"
       style="font-size:15.6028px;font-family:'Times New Roman';-inkscape-font-specification:'Times New Roman, ';fill:#ffffff;stroke:#ffffff;stroke-width:0.245713;stroke-linecap:round"
       aria-label="X" />
  </g>
</svg>
