<?xml version="1.0" encoding="UTF-8" standalone="no"?>
<!-- Created with Inkscape (http://www.inkscape.org/) -->

<svg
   width="37.570824mm"
   height="36.247913mm"
   viewBox="0 0 37.570824 36.247913"
   version="1.1"
   id="svg1"
   xmlns:inkscape="http://www.inkscape.org/namespaces/inkscape"
   xmlns:sodipodi="http://sodipodi.sourceforge.net/DTD/sodipodi-0.dtd"
   xmlns="http://www.w3.org/2000/svg"
   xmlns:svg="http://www.w3.org/2000/svg">
  <sodipodi:namedview
     id="namedview1"
     pagecolor="#ffffff"
     bordercolor="#000000"
     borderopacity="0.25"
     inkscape:showpageshadow="2"
     inkscape:pageopacity="0.0"
     inkscape:pagecheckerboard="0"
     inkscape:deskcolor="#d1d1d1"
     inkscape:document-units="mm"
     inkscape:zoom="2.0283687"
     inkscape:cx="245.76399"
     inkscape:cy="-110.68007"
     inkscape:window-width="1920"
     inkscape:window-height="1001"
     inkscape:window-x="-7"
     inkscape:window-y="-7"
     inkscape:window-maximized="1"
     inkscape:current-layer="layer1" />
  <defs
     id="defs1" />
  <g
     inkscape:label="Layer 1"
     inkscape:groupmode="layer"
     id="layer1"
     transform="translate(-74.180437,48.12776)">
    <rect
       style="fill:#000000;fill-opacity:0;stroke:#000000;stroke-width:0.527318;stroke-linecap:round;stroke-opacity:0"
       id="rect1"
       width="37.043514"
       height="35.720596"
       x="74.444092"
       y="-47.864101"
       ry="0.7629931"
       inkscape:export-filename=".\rect1.svg"
       inkscape:export-xdpi="96"
       inkscape:export-ydpi="96" />
    <g
       id="g3"
       transform="matrix(1.2107313,0,0,1.2107313,-19.590814,6.3227383)">
      <path
         id="path3"
         style="fill:#211f21;fill-opacity:1;stroke:#211f21;stroke-width:0.212366;stroke-linecap:round;stroke-opacity:1"
         d="m 91.691731,-41.658508 c -0.162262,0 -0.292465,0.130746 -0.292465,0.293014 v 5.21444 l -0.05652,-0.05652 c -0.114735,-0.114736 -0.299544,-0.114736 -0.41428,0 l -0.376418,0.376418 h -0.532254 c -0.162261,0 -0.293013,0.130204 -0.293013,0.292466 v 0.08011 l -3.686818,-3.686817 c -0.114741,-0.114741 -0.299544,-0.114736 -0.41428,0 l -1.80198,1.801432 c -0.114737,0.114737 -0.114192,0.299539 5.49e-4,0.41428 l 3.686816,3.686817 h -0.07956 c -0.16226,0 -0.293013,0.130753 -0.293013,0.293014 v 0.532253 l -0.376419,0.376419 c -0.114735,0.114735 -0.115285,0.299543 -5.48e-4,0.41428 l 0.05597,0.05597 h -5.213346 c -0.162269,0 -0.293014,0.130752 -0.293014,0.293014 v 2.548232 c 0,0.162263 0.130745,0.292466 0.293014,0.292466 h 5.21444 l -0.05652,0.05652 c -0.114735,0.114736 -0.114735,0.299545 0,0.41428 l 0.376419,0.376419 v 0.532253 c 0,0.162262 0.130203,0.293014 0.292465,0.293014 h 0.07956 l -3.686816,3.686817 c -0.114741,0.114742 -0.114737,0.299544 0,0.41428 l 1.80198,1.801981 c 0.114737,0.114737 0.29899,0.114741 0.413731,0 l 3.687367,-3.687366 v 0.07956 c 0,0.162261 0.130752,0.293015 0.293013,0.293015 h 0.532254 l 0.376418,0.376418 c 0.114736,0.114736 0.298995,0.115286 0.413732,5.49e-4 l 0.05652,-0.05652 v 5.213892 c 0,0.162267 0.130752,0.293013 0.293014,0.293013 h 2.548233 c 0.162262,0 0.292464,-0.130746 0.292464,-0.293013 v -5.214441 l 0.05652,0.05652 c 0.114736,0.114736 0.299544,0.114736 0.41428,0 l 0.37642,-0.376418 h 0.532253 c 0.162261,0 0.293014,-0.130204 0.293014,-0.292466 v -0.07901 l 3.686819,3.686269 c 0.114738,0.114741 0.299538,0.114737 0.414278,0 l 1.80198,-1.801981 c 0.11473,-0.114737 0.11419,-0.298991 -5.6e-4,-0.413731 l -3.687354,-3.687366 h 0.08011 c 0.162261,0 0.293013,-0.130752 0.293013,-0.293014 v -0.532253 l 0.37642,-0.376419 c 0.114733,-0.114735 0.114743,-0.298994 0,-0.413731 l -0.05652,-0.05652 h 5.214441 c 0.16227,0 0.29302,-0.130751 0.29302,-0.293014 v -2.548232 c 0,-0.162262 -0.13075,-0.292466 -0.29302,-0.292466 h -5.213892 l 0.05597,-0.05597 c 0.114734,-0.114736 0.114734,-0.300093 0,-0.414828 l -0.37642,-0.376419 v -0.532253 c 0,-0.162261 -0.130202,-0.293014 -0.292464,-0.293014 h -0.07956 l 3.686816,-3.686268 c 0.11474,-0.114742 0.11473,-0.300093 0,-0.414829 l -1.80198,-1.801432 c -0.11474,-0.114736 -0.29954,-0.114741 -0.414278,0 l -3.686818,3.687366 v -0.08011 c 0,-0.162261 -0.130753,-0.293015 -0.293014,-0.293015 h -0.532253 l -0.37642,-0.376418 c -0.114736,-0.114736 -0.299543,-0.114737 -0.41428,0 l -0.05597,0.05597 v -5.213891 c 0,-0.162268 -0.130751,-0.293014 -0.293013,-0.293014 z m 1.274116,9.577274 a 2.0775966,2.0775966 0 0 1 2.077436,2.077435 2.0775966,2.0775966 0 0 1 -2.077436,2.077984 2.0775966,2.0775966 0 0 1 -2.077435,-2.077984 2.0775966,2.0775966 0 0 1 2.077435,-2.077435 z"
         inkscape:export-filename="GearPickup.svg"
         inkscape:export-xdpi="96"
         inkscape:export-ydpi="96" />
      <path
         id="rect2"
         style="fill:#9593a7;fill-opacity:1;stroke:#211f21;stroke-width:0.2;stroke-linecap:round;stroke-opacity:1"
         d="m 91.765921,-40.979877 c -0.152814,0 -0.275436,0.123134 -0.275436,0.275952 v 4.910812 l -0.05323,-0.05323 c -0.108054,-0.108055 -0.282102,-0.108055 -0.390157,0 l -0.3545,0.3545 H 90.19134 c -0.152813,0 -0.275952,0.122622 -0.275952,0.275436 v 0.07545 l -3.47214,-3.472139 c -0.10806,-0.10806 -0.282102,-0.108056 -0.390157,0 l -1.697054,1.696537 c -0.108056,0.108056 -0.107543,0.282097 5.17e-4,0.390157 l 3.472139,3.47214 h -0.07493 c -0.152812,0 -0.275952,0.12314 -0.275952,0.275952 v 0.501261 l -0.3545,0.354501 c -0.108055,0.108054 -0.108573,0.282101 -5.17e-4,0.390157 l 0.05271,0.05271 h -4.909778 c -0.15282,0 -0.275952,0.123138 -0.275952,0.275952 v 2.399853 c 0,0.152814 0.123132,0.275436 0.275952,0.275436 h 4.910812 l -0.05323,0.05323 c -0.108055,0.108055 -0.108055,0.282103 0,0.390157 l 0.3545,0.354501 v 0.501261 c 0,0.152813 0.122622,0.275952 0.275436,0.275952 h 0.07493 l -3.472139,3.47214 c -0.10806,0.10806 -0.108056,0.282102 0,0.390157 l 1.697054,1.697054 c 0.108056,0.108056 0.28158,0.10806 0.38964,0 l 3.472657,-3.472656 v 0.07493 c 0,0.152813 0.123139,0.275953 0.275952,0.275953 h 0.501261 l 0.3545,0.3545 c 0.108055,0.108055 0.281585,0.108573 0.389641,5.17e-4 l 0.05323,-0.05323 v 4.910295 c 0,0.152819 0.123139,0.275952 0.275953,0.275952 h 2.399853 c 0.152814,0 0.275435,-0.123133 0.275435,-0.275952 v -4.910812 l 0.05323,0.05323 c 0.108055,0.108055 0.282102,0.108055 0.390157,0 l 0.354501,-0.3545 h 0.501261 c 0.152813,0 0.275952,-0.122622 0.275952,-0.275436 v -0.07441 l 3.47214,3.471623 c 0.10806,0.10806 0.282102,0.108056 0.390157,0 l 1.697051,-1.697054 c 0.10805,-0.108056 0.10754,-0.281581 -5.2e-4,-0.38964 l -3.47265,-3.472657 h 0.07545 c 0.152813,0 0.275952,-0.123139 0.275952,-0.275952 v -0.501261 l 0.354501,-0.354501 c 0.108055,-0.108054 0.108056,-0.281584 0,-0.38964 l -0.05323,-0.05323 h 4.910817 c 0.15282,0 0.27596,-0.123138 0.27596,-0.275952 v -2.399853 c 0,-0.152814 -0.12315,-0.275436 -0.27596,-0.275436 h -4.9103 l 0.05271,-0.05271 c 0.108055,-0.108055 0.108055,-0.282619 0,-0.390673 l -0.354501,-0.354501 v -0.501261 c 0,-0.152813 -0.122621,-0.275952 -0.275435,-0.275952 h -0.07493 l 3.472146,-3.471623 c 0.10806,-0.10806 0.10805,-0.282619 0,-0.390674 l -1.69706,-1.696537 c -0.108056,-0.108056 -0.282097,-0.10806 -0.390157,0 l -3.47214,3.472656 v -0.07545 c 0,-0.152813 -0.123139,-0.275953 -0.275952,-0.275953 H 95.2391 l -0.354501,-0.3545 c -0.108055,-0.108055 -0.282101,-0.108056 -0.390157,0 l -0.05271,0.05271 v -4.910295 c 0,-0.152819 -0.123138,-0.275951 -0.275952,-0.275951 z m 1.199926,9.019605 a 1.9566215,1.9566215 0 0 1 1.95647,1.956469 1.9566215,1.9566215 0 0 1 -1.95647,1.956987 1.9566215,1.9566215 0 0 1 -1.956469,-1.956987 1.9566215,1.9566215 0 0 1 1.956469,-1.956469 z" />
    </g>
  </g>
</svg>
