<?xml version="1.0" encoding="UTF-8" standalone="no"?>
<!-- Created with Inkscape (http://www.inkscape.org/) -->

<svg
   width="102.29129"
   height="94.422729"
   viewBox="0 0 27.06457 24.98268"
   version="1.1"
   id="svg1"
   inkscape:version="1.3.2 (091e20e, 2023-11-25, custom)"
   sodipodi:docname="TestScene.svg"
   xml:space="preserve"
   xmlns:inkscape="http://www.inkscape.org/namespaces/inkscape"
   xmlns:sodipodi="http://sodipodi.sourceforge.net/DTD/sodipodi-0.dtd"
   xmlns="http://www.w3.org/2000/svg"
   xmlns:svg="http://www.w3.org/2000/svg"><sodipodi:namedview
     id="namedview1"
     pagecolor="#ffffff"
     bordercolor="#000000"
     borderopacity="0.25"
     inkscape:showpageshadow="2"
     inkscape:pageopacity="0.0"
     inkscape:pagecheckerboard="0"
     inkscape:deskcolor="#d1d1d1"
     inkscape:document-units="mm"
     inkscape:zoom="0.71891835"
     inkscape:cx="147.44373"
     inkscape:cy="801.89913"
     inkscape:window-width="1920"
     inkscape:window-height="1010"
     inkscape:window-x="1699"
     inkscape:window-y="-6"
     inkscape:window-maximized="1"
     inkscape:current-layer="layer1" /><defs
     id="defs1" /><g
     inkscape:label="Layer 1"
     inkscape:groupmode="layer"
     id="layer1"
     transform="translate(-131.31969,-242.46701)"><rect
       style="fill:#242726;fill-opacity:1;fill-rule:evenodd;stroke:none;stroke-width:0.743984;stroke-linecap:square;stroke-linejoin:round;stroke-dasharray:none;paint-order:stroke fill markers"
       id="rect1-0"
       width="27.064579"
       height="24.982685"
       x="131.31969"
       y="242.46701"
       ry="2.466794"
       inkscape:export-filename="HurtFace.svg"
       inkscape:export-xdpi="96"
       inkscape:export-ydpi="96" /><ellipse
       style="fill:#72ebf5;fill-opacity:1;fill-rule:evenodd;stroke-width:0.63087;stroke-linecap:square;stroke-linejoin:round;paint-order:stroke fill markers"
       id="circle4"
       cx="144.79454"
       cy="258.68341"
       rx="6.2984467"
       ry="3.9563196" /><path
       id="path5"
       style="fill:#72ebf5;fill-opacity:1;fill-rule:evenodd;stroke:none;stroke-width:0.229208;stroke-linecap:square;stroke-linejoin:round;stroke-dasharray:none;paint-order:stroke fill markers"
       d="m 134.38177,249.957 a 3.616174,2.6841702 0 0 1 -0.0998,-0.60762 3.616174,2.6841702 0 0 1 3.61617,-2.68415 3.616174,2.6841702 0 0 1 3.61617,2.68415 3.616174,2.6841702 0 0 1 -0.023,0.29611 3.616174,2.6841702 0 0 0 -3.5186,-2.08554 3.616174,2.6841702 0 0 0 -3.591,2.39705 z" /><path
       id="path7"
       style="fill:#72ebf5;fill-opacity:1;fill-rule:evenodd;stroke:none;stroke-width:0.229208;stroke-linecap:square;stroke-linejoin:round;stroke-dasharray:none;paint-order:stroke fill markers"
       d="m 147.78394,249.957 a 3.616174,2.6841702 0 0 1 -0.0998,-0.60762 3.616174,2.6841702 0 0 1 3.61617,-2.68415 3.616174,2.6841702 0 0 1 3.61617,2.68415 3.616174,2.6841702 0 0 1 -0.023,0.29611 3.616174,2.6841702 0 0 0 -3.5186,-2.08554 3.616174,2.6841702 0 0 0 -3.591,2.39705 z" /></g></svg>
