<?xml version="1.0" encoding="UTF-8" standalone="no"?>
<!-- Created with Inkscape (http://www.inkscape.org/) -->

<svg
   width="48.404278mm"
   height="10.929856mm"
   viewBox="0 0 48.404278 10.929856"
   version="1.1"
   id="svg1"
   inkscape:version="1.3.2 (091e20e, 2023-11-25, custom)"
   sodipodi:docname="TestScene.svg"
   xml:space="preserve"
   xmlns:inkscape="http://www.inkscape.org/namespaces/inkscape"
   xmlns:sodipodi="http://sodipodi.sourceforge.net/DTD/sodipodi-0.dtd"
   xmlns="http://www.w3.org/2000/svg"
   xmlns:svg="http://www.w3.org/2000/svg"><sodipodi:namedview
     id="namedview1"
     pagecolor="#ffffff"
     bordercolor="#000000"
     borderopacity="0.25"
     inkscape:showpageshadow="2"
     inkscape:pageopacity="0.0"
     inkscape:pagecheckerboard="0"
     inkscape:deskcolor="#d1d1d1"
     inkscape:document-units="mm"
     inkscape:zoom="0.50835204"
     inkscape:cx="100.32418"
     inkscape:cy="502.60445"
     inkscape:window-width="1920"
     inkscape:window-height="1010"
     inkscape:window-x="1699"
     inkscape:window-y="-6"
     inkscape:window-maximized="1"
     inkscape:current-layer="layer1" /><defs
     id="defs1" /><g
     inkscape:label="Layer 1"
     inkscape:groupmode="layer"
     id="layer1"
     transform="translate(-68.024789,-322.04259)"><path
       id="path58"
       style="fill:#ffffff;fill-opacity:1;fill-rule:evenodd;stroke:none;stroke-width:0.589157;stroke-linecap:square;stroke-linejoin:round;stroke-dasharray:none;paint-order:stroke fill markers"
       d="m 92.226929,322.04259 a 24.201979,5.4649384 0 0 0 -24.202141,5.46492 24.201979,5.4649384 0 0 0 24.202141,5.46493 24.201979,5.4649384 0 0 0 24.202141,-5.46493 24.201979,5.4649384 0 0 0 -24.202141,-5.46492 z m 0,0.85811 a 20.401669,4.6068076 0 0 1 20.401851,4.60681 20.401669,4.6068076 0 0 1 -20.401851,4.60681 20.401669,4.6068076 0 0 1 -20.401856,-4.60681 20.401669,4.6068076 0 0 1 20.401856,-4.60681 z" /></g></svg>
