<?xml version="1.0" encoding="UTF-8" standalone="no"?>
<!-- Created with Inkscape (http://www.inkscape.org/) -->

<svg
   width="630"
   height="500"
   viewBox="0 0 166.6875 132.29167"
   version="1.1"
   id="svg1"
   xmlns:inkscape="http://www.inkscape.org/namespaces/inkscape"
   xmlns:sodipodi="http://sodipodi.sourceforge.net/DTD/sodipodi-0.dtd"
   xmlns="http://www.w3.org/2000/svg"
   xmlns:svg="http://www.w3.org/2000/svg">
  <sodipodi:namedview
     id="namedview1"
     pagecolor="#ffffff"
     bordercolor="#000000"
     borderopacity="0.25"
     inkscape:showpageshadow="2"
     inkscape:pageopacity="0.0"
     inkscape:pagecheckerboard="0"
     inkscape:deskcolor="#d1d1d1"
     inkscape:document-units="mm" />
  <defs
     id="defs1" />
  <g
     inkscape:label="Layer 1"
     inkscape:groupmode="layer"
     id="layer1">
    <rect
       style="fill:#0039ab;fill-opacity:1;fill-rule:evenodd;stroke:#6ce3f0;stroke-width:1;stroke-linecap:square;stroke-linejoin:round;paint-order:stroke fill markers"
       id="rect5"
       width="202.04832"
       height="163.77324"
       x="-13.98513"
       y="-11.040892"
       ry="1.0409453" />
    <g
       id="g1"
       transform="translate(-59.252789,-6.6245354)">
      <g
         id="g55"
         style="fill:#d3d3d3;fill-opacity:1"
         transform="matrix(-0.89181821,0.25280548,-0.25280548,-0.89181821,226.827,119.07212)"
         inkscape:export-filename="Racket.svg"
         inkscape:export-xdpi="96"
         inkscape:export-ydpi="96">
        <rect
           style="fill:#d3d3d3;fill-opacity:1;fill-rule:evenodd;stroke:none;stroke-width:0.851913;stroke-linecap:square;stroke-linejoin:round;stroke-dasharray:none;paint-order:stroke fill markers"
           id="rect49"
           width="29.536821"
           height="1.2519312"
           x="-42.306355"
           y="87.346443"
           transform="rotate(-89.173453)"
           ry="0.6259656" />
        <rect
           style="fill:#d3d3d3;fill-opacity:1;fill-rule:evenodd;stroke:none;stroke-width:0.851913;stroke-linecap:square;stroke-linejoin:round;stroke-dasharray:none;paint-order:stroke fill markers"
           id="rect50"
           width="29.536821"
           height="1.2519312"
           x="-42.306355"
           y="90.859634"
           transform="rotate(-89.173453)"
           ry="0.6259656" />
        <rect
           style="fill:#d3d3d3;fill-opacity:1;fill-rule:evenodd;stroke:none;stroke-width:0.851913;stroke-linecap:square;stroke-linejoin:round;stroke-dasharray:none;paint-order:stroke fill markers"
           id="rect51"
           width="29.536821"
           height="1.2519312"
           x="-42.306355"
           y="93.592117"
           transform="rotate(-89.173453)"
           ry="0.6259656" />
        <rect
           style="fill:#d3d3d3;fill-opacity:1;fill-rule:evenodd;stroke:none;stroke-width:0.851913;stroke-linecap:square;stroke-linejoin:round;stroke-dasharray:none;paint-order:stroke fill markers"
           id="rect52"
           width="29.536821"
           height="1.2519312"
           x="-42.306355"
           y="96.584831"
           transform="rotate(-89.173453)"
           ry="0.6259656" />
        <rect
           style="fill:#d3d3d3;fill-opacity:1;fill-rule:evenodd;stroke:none;stroke-width:0.851913;stroke-linecap:square;stroke-linejoin:round;stroke-dasharray:none;paint-order:stroke fill markers"
           id="rect53"
           width="29.536821"
           height="1.2519312"
           x="-42.306355"
           y="84.093491"
           transform="rotate(-89.173453)"
           ry="0.6259656" />
        <rect
           style="fill:#d3d3d3;fill-opacity:1;fill-rule:evenodd;stroke:none;stroke-width:0.809579;stroke-linecap:square;stroke-linejoin:round;stroke-dasharray:none;paint-order:stroke fill markers"
           id="rect54"
           width="26.674221"
           height="1.2519312"
           x="-41.005173"
           y="81.230888"
           transform="rotate(-89.173453)"
           ry="0.6259656" />
        <rect
           style="fill:#d3d3d3;fill-opacity:1;fill-rule:evenodd;stroke:none;stroke-width:0.809579;stroke-linecap:square;stroke-linejoin:round;stroke-dasharray:none;paint-order:stroke fill markers"
           id="rect55"
           width="26.674221"
           height="1.2519312"
           x="-41.005173"
           y="78.238174"
           transform="rotate(-89.173453)"
           ry="0.6259656" />
      </g>
      <g
         id="g48"
         style="fill:#d3d3d3;fill-opacity:1"
         transform="rotate(89.173452,70.369303,99.247159)">
        <rect
           style="fill:#d3d3d3;fill-opacity:1;fill-rule:evenodd;stroke:none;stroke-width:0.851913;stroke-linecap:square;stroke-linejoin:round;stroke-dasharray:none;paint-order:stroke fill markers"
           id="rect45"
           width="29.536821"
           height="1.2519312"
           x="-42.306355"
           y="87.346443"
           transform="rotate(-89.173453)"
           ry="0.6259656" />
        <rect
           style="fill:#d3d3d3;fill-opacity:1;fill-rule:evenodd;stroke:none;stroke-width:0.851913;stroke-linecap:square;stroke-linejoin:round;stroke-dasharray:none;paint-order:stroke fill markers"
           id="rect46"
           width="29.536821"
           height="1.2519312"
           x="-42.306355"
           y="90.859634"
           transform="rotate(-89.173453)"
           ry="0.6259656" />
        <rect
           style="fill:#d3d3d3;fill-opacity:1;fill-rule:evenodd;stroke:none;stroke-width:0.851913;stroke-linecap:square;stroke-linejoin:round;stroke-dasharray:none;paint-order:stroke fill markers"
           id="rect47"
           width="29.536821"
           height="1.2519312"
           x="-42.306355"
           y="93.592117"
           transform="rotate(-89.173453)"
           ry="0.6259656" />
        <rect
           style="fill:#d3d3d3;fill-opacity:1;fill-rule:evenodd;stroke:none;stroke-width:0.851913;stroke-linecap:square;stroke-linejoin:round;stroke-dasharray:none;paint-order:stroke fill markers"
           id="rect48"
           width="29.536821"
           height="1.2519312"
           x="-42.306355"
           y="96.584831"
           transform="rotate(-89.173453)"
           ry="0.6259656" />
        <rect
           style="fill:#d3d3d3;fill-opacity:1;fill-rule:evenodd;stroke:none;stroke-width:0.851913;stroke-linecap:square;stroke-linejoin:round;stroke-dasharray:none;paint-order:stroke fill markers"
           id="rect44"
           width="29.536821"
           height="1.2519312"
           x="-42.306355"
           y="84.093491"
           transform="rotate(-89.173453)"
           ry="0.6259656" />
        <rect
           style="fill:#d3d3d3;fill-opacity:1;fill-rule:evenodd;stroke:none;stroke-width:0.809579;stroke-linecap:square;stroke-linejoin:round;stroke-dasharray:none;paint-order:stroke fill markers"
           id="rect43"
           width="26.674221"
           height="1.2519312"
           x="-41.005173"
           y="81.230888"
           transform="rotate(-89.173453)"
           ry="0.6259656" />
        <rect
           style="fill:#d3d3d3;fill-opacity:1;fill-rule:evenodd;stroke:none;stroke-width:0.809579;stroke-linecap:square;stroke-linejoin:round;stroke-dasharray:none;paint-order:stroke fill markers"
           id="rect42"
           width="26.674221"
           height="1.2519312"
           x="-41.005173"
           y="78.238174"
           transform="rotate(-89.173453)"
           ry="0.6259656" />
      </g>
      <path
         id="rect8"
         style="fill:#404040;fill-rule:evenodd;stroke:none;stroke-width:0.499999;stroke-linecap:square;stroke-linejoin:round;paint-order:stroke fill markers"
         d="m 125.33424,116.13784 c 0.0228,1.57997 -1.23082,2.87028 -2.81079,2.89308 l -20.79152,0.29996 c -0.8817,0.0127 -0.0823,-5.70387 -0.0823,-5.70387 l 20.79152,-0.29996 c 1.57997,-0.0228 2.87028,1.23082 2.89308,2.81079 z"
         sodipodi:nodetypes="ssscss" />
      <path
         id="path42"
         style="fill:#003399;fill-rule:evenodd;stroke:#003399;stroke-width:1;stroke-linecap:square;stroke-linejoin:round;stroke-dasharray:none;paint-order:stroke fill markers"
         d="m 140.84683,100.73141 a 15.45725,17.205389 89.173452 0 0 -16.98036,15.70343 15.45725,17.205389 89.173452 0 0 17.42633,15.20786 15.45725,17.205389 89.173452 0 0 16.98088,-15.70395 15.45725,17.205389 89.173452 0 0 -17.42685,-15.20734 z m -0.23978,2.04225 a 13.024419,14.497416 89.173452 0 1 14.68386,12.81369 13.024419,14.497416 89.173452 0 1 -14.30817,13.23226 13.024419,14.497416 89.173452 0 1 -14.68386,-12.8142 13.024419,14.497416 89.173452 0 1 14.30817,-13.23175 z" />
      <path
         id="path64"
         style="fill:#3366cc;fill-rule:evenodd;stroke:#003399;stroke-width:1;stroke-linecap:square;stroke-linejoin:round;stroke-dasharray:none;paint-order:stroke fill markers"
         d="m 140.84674,100.91537 a 15.45725,17.205389 89.173452 0 0 -14.25391,7.16545 h 2.7466 a 13.024419,14.497416 89.173452 0 1 11.26753,-5.1232 13.024419,14.497416 89.173452 0 1 11.73055,5.1232 h 3.25665 a 15.45725,17.205389 89.173452 0 0 -14.74742,-7.16545 z" />
    </g>
    <g
       id="g3"
       transform="translate(-18.401487,1.8401487)">
      <g
         id="g2">
        <rect
           style="fill:#404040;fill-opacity:1;fill-rule:evenodd;stroke:none;stroke-width:0.4427;stroke-linecap:square;stroke-linejoin:round;stroke-dasharray:none;paint-order:stroke fill markers"
           id="rect41"
           width="2.9486139"
           height="24.201492"
           x="43.346207"
           y="57.055756"
           ry="2.8521733"
           transform="matrix(0.99976364,-0.021741,0.00203841,0.99999792,0,0)"
           inkscape:export-filename="Player.svg"
           inkscape:export-xdpi="96"
           inkscape:export-ydpi="96" />
        <rect
           style="fill:#81c5bc;fill-opacity:1;fill-rule:evenodd;stroke-width:0.499999;stroke-linecap:square;stroke-linejoin:round;paint-order:stroke fill markers"
           id="rect3"
           width="23.921932"
           height="25.394051"
           x="43.986454"
           y="95.788528"
           ry="6.8085499" />
        <rect
           style="fill:#bfbfbf;fill-rule:evenodd;stroke-width:0.499999;stroke-linecap:square;stroke-linejoin:round;paint-order:stroke fill markers"
           id="rect4"
           width="34.962826"
           height="33.858734"
           x="38.834042"
           y="72.234619"
           ry="6.8085499" />
        <rect
           style="fill:#242726;fill-opacity:1;fill-rule:evenodd;stroke:none;stroke-width:0.743984;stroke-linecap:square;stroke-linejoin:round;stroke-dasharray:none;paint-order:stroke fill markers"
           id="rect39"
           width="27.064579"
           height="24.982685"
           x="44.560551"
           y="75.078186"
           ry="2.466794" />
        <circle
           style="fill:#000000;fill-rule:evenodd;stroke-width:0.499999;stroke-linecap:square;stroke-linejoin:round;paint-order:stroke fill markers"
           id="path6"
           cx="65.792213"
           cy="84.287598"
           r="3.9563196" />
        <circle
           style="fill:#72ebf5;fill-opacity:1;fill-rule:evenodd;stroke-width:0.499999;stroke-linecap:square;stroke-linejoin:round;paint-order:stroke fill markers"
           id="circle6"
           cx="65.792213"
           cy="84.287598"
           r="3.9563196" />
        <circle
           style="fill:#6ce3f0;fill-opacity:1;fill-rule:evenodd;stroke-width:0.499999;stroke-linecap:square;stroke-linejoin:round;paint-order:stroke fill markers"
           id="circle7"
           cx="53.279209"
           cy="84.287598"
           r="3.9563196" />
        <path
           id="path41"
           style="fill:#72ebf5;fill-opacity:1;fill-rule:evenodd;stroke:none;stroke-width:0.401351;stroke-linecap:square;stroke-linejoin:round;stroke-dasharray:none;paint-order:stroke fill markers"
           d="m 53.323129,89.092145 a 6.3320548,4.7000816 0 0 0 -0.174738,1.06398 6.3320548,4.7000816 0 0 0 6.33205,4.70004 6.3320548,4.7000816 0 0 0 6.332047,-4.70004 6.3320548,4.7000816 0 0 0 -0.0402,-0.51851 6.3320548,4.7000816 0 0 1 -6.161199,3.65187 6.3320548,4.7000816 0 0 1 -6.287976,-4.19734 z" />
        <circle
           style="fill:#cecece;fill-opacity:1;fill-rule:evenodd;stroke:none;stroke-width:1;stroke-linecap:square;stroke-linejoin:round;stroke-dasharray:none;paint-order:stroke fill markers"
           id="path56"
           cx="44.791927"
           cy="54.106827"
           r="4.5541353" />
      </g>
      <rect
         style="fill:#242726;fill-opacity:1;fill-rule:evenodd;stroke:none;stroke-width:0.743984;stroke-linecap:square;stroke-linejoin:round;stroke-dasharray:none;paint-order:stroke fill markers"
         id="rect1-0"
         width="27.064579"
         height="24.982685"
         x="44.869732"
         y="75.438087"
         ry="2.466794"
         inkscape:export-filename="HappyFace.svg"
         inkscape:export-xdpi="96"
         inkscape:export-ydpi="96" />
      <ellipse
         style="fill:#72ebf5;fill-opacity:1;fill-rule:evenodd;stroke-width:0.63087;stroke-linecap:square;stroke-linejoin:round;paint-order:stroke fill markers"
         id="circle4"
         cx="58.344585"
         cy="91.654488"
         rx="6.2984467"
         ry="3.9563196" />
      <path
         id="path5"
         style="fill:#72ebf5;fill-opacity:1;fill-rule:evenodd;stroke:none;stroke-width:0.229208;stroke-linecap:square;stroke-linejoin:round;stroke-dasharray:none;paint-order:stroke fill markers"
         d="m 47.931814,82.928082 a 3.616174,2.6841702 0 0 1 -0.0998,-0.60762 3.616174,2.6841702 0 0 1 3.61617,-2.68415 3.616174,2.6841702 0 0 1 3.61617,2.68415 3.616174,2.6841702 0 0 1 -0.023,0.29611 3.616174,2.6841702 0 0 0 -3.5186,-2.08554 3.616174,2.6841702 0 0 0 -3.591,2.39705 z" />
      <path
         id="path7"
         style="fill:#72ebf5;fill-opacity:1;fill-rule:evenodd;stroke:none;stroke-width:0.229208;stroke-linecap:square;stroke-linejoin:round;stroke-dasharray:none;paint-order:stroke fill markers"
         d="m 61.333984,82.928082 a 3.616174,2.6841702 0 0 1 -0.0998,-0.60762 3.616174,2.6841702 0 0 1 3.61617,-2.68415 3.616174,2.6841702 0 0 1 3.61617,2.68415 3.616174,2.6841702 0 0 1 -0.023,0.29611 3.616174,2.6841702 0 0 0 -3.5186,-2.08554 3.616174,2.6841702 0 0 0 -3.591,2.39705 z" />
    </g>
    <circle
       style="fill:#000000;fill-opacity:1;fill-rule:evenodd;stroke:#ffffff;stroke-width:0.934122;stroke-linecap:square;stroke-linejoin:round;stroke-dasharray:none;paint-order:stroke fill markers"
       id="circle31"
       cx="94.159607"
       cy="79.561783"
       r="9.7858229"
       inkscape:export-filename="Ball.svg"
       inkscape:export-xdpi="96"
       inkscape:export-ydpi="96" />
    <circle
       style="fill:#ffffff;fill-opacity:1;fill-rule:evenodd;stroke:#ffffff;stroke-width:0.850296;stroke-linecap:square;stroke-linejoin:round;stroke-dasharray:none;paint-order:stroke fill markers"
       id="circle30"
       cx="94.228745"
       cy="79.538895"
       r="8.9076614"
       inkscape:export-filename="Ball.svg"
       inkscape:export-xdpi="96"
       inkscape:export-ydpi="96" />
    <circle
       style="fill:#bfbfbf;fill-opacity:1;fill-rule:evenodd;stroke:#000000;stroke-width:0.8;stroke-linecap:square;stroke-linejoin:round;stroke-dasharray:none;paint-order:stroke fill markers"
       id="path17"
       cx="94.205849"
       cy="79.516006"
       r="8.380765"
       inkscape:export-filename="Ball.svg"
       inkscape:export-xdpi="96"
       inkscape:export-ydpi="96" />
    <path
       id="circle32"
       style="fill:#ffffff;fill-opacity:1;fill-rule:evenodd;stroke:#ffffff;stroke-width:0.682943;stroke-linecap:square;stroke-linejoin:round;stroke-dasharray:none;paint-order:stroke fill markers"
       d="m 100.03662,75.332359 a 7.1544814,7.1544814 0 0 1 0.48349,2.57898 7.1544814,7.1544814 0 0 1 -7.154567,7.15459 7.1544814,7.1544814 0 0 1 -5.63527,-2.7744 7.1544814,7.1544814 0 0 0 6.65608,4.58091 7.1544814,7.1544814 0 0 0 7.154587,-7.15458 7.1544814,7.1544814 0 0 0 -1.50432,-4.3855 z" />
    <text
       xml:space="preserve"
       style="font-style:normal;font-variant:normal;font-weight:normal;font-stretch:normal;font-size:16.9333px;font-family:'ROG Fonts';-inkscape-font-specification:'ROG Fonts';text-align:center;text-anchor:middle;fill:#000000;fill-rule:evenodd;stroke:#6ce3f0;stroke-width:1;stroke-linecap:square;stroke-linejoin:round;paint-order:stroke fill markers"
       x="83.910782"
       y="32.386616"
       id="text3"><tspan
         sodipodi:role="line"
         id="tspan3"
         style="font-style:normal;font-variant:normal;font-weight:normal;font-stretch:normal;font-size:16.9333px;font-family:'ROG Fonts';-inkscape-font-specification:'ROG Fonts';fill:#000000;stroke-width:1"
         x="83.910782"
         y="32.386616">BRICK TENNIS</tspan></text>
    <rect
       style="fill:#00cc00;fill-opacity:1;fill-rule:evenodd;stroke:#000000;stroke-width:0.593539;stroke-linecap:square;stroke-linejoin:round;paint-order:stroke fill markers"
       id="rect16"
       width="35.40646"
       height="19.40646"
       x="128.5043"
       y="36.216431"
       ry="3.5449636"
       inkscape:export-filename="BrickGreen.svg"
       inkscape:export-xdpi="96"
       inkscape:export-ydpi="96" />
    <rect
       style="fill:#ffffff;fill-rule:evenodd;stroke:#000000;stroke-width:0.531782;stroke-linecap:square;stroke-linejoin:round;paint-order:stroke fill markers"
       id="rect18"
       width="33.213406"
       height="16.606703"
       x="129.53177"
       y="37.519936"
       ry="3.0335343" />
    <rect
       style="fill:#00cc00;fill-opacity:1;fill-rule:evenodd;stroke:#000000;stroke-width:0.499999;stroke-linecap:square;stroke-linejoin:round;paint-order:stroke fill markers"
       id="rect30"
       width="31.228359"
       height="15.61418"
       x="130.4267"
       y="38.024529"
       ry="2.8522305" />
    <path
       id="path30"
       style="fill:#77ff77;fill-opacity:1;fill-rule:evenodd;stroke:none;stroke-width:0.4913;stroke-linecap:square;stroke-linejoin:round;paint-order:stroke fill markers"
       d="m 130.69827,49.195038 v 1.26589 c 0,1.55263 1.25027,2.80239 2.80291,2.80239 h 25.07943 c 1.55263,0 2.80291,-1.24976 2.80291,-2.80239 v -1.26589 c 0,1.55265 -1.25028,2.80291 -2.80291,2.80291 h -25.07943 c -1.55264,0 -2.80291,-1.25026 -2.80291,-2.80291 z" />
    <rect
       style="fill:#00cc00;fill-opacity:1;fill-rule:evenodd;stroke:#000000;stroke-width:0.593539;stroke-linecap:square;stroke-linejoin:round;paint-order:stroke fill markers"
       id="rect6"
       width="35.40646"
       height="19.40646"
       x="90.22921"
       y="36.216431"
       ry="3.5449636"
       inkscape:export-filename="BrickGreen.svg"
       inkscape:export-xdpi="96"
       inkscape:export-ydpi="96" />
    <rect
       style="fill:#ffffff;fill-rule:evenodd;stroke:#000000;stroke-width:0.531782;stroke-linecap:square;stroke-linejoin:round;paint-order:stroke fill markers"
       id="rect7"
       width="33.213406"
       height="16.606703"
       x="91.256676"
       y="37.519936"
       ry="3.0335343" />
    <rect
       style="fill:#00cc00;fill-opacity:1;fill-rule:evenodd;stroke:#000000;stroke-width:0.499999;stroke-linecap:square;stroke-linejoin:round;paint-order:stroke fill markers"
       id="rect9"
       width="31.228359"
       height="15.61418"
       x="92.151604"
       y="38.024529"
       ry="2.8522305" />
    <path
       id="path9"
       style="fill:#77ff77;fill-opacity:1;fill-rule:evenodd;stroke:none;stroke-width:0.4913;stroke-linecap:square;stroke-linejoin:round;paint-order:stroke fill markers"
       d="m 92.423177,49.195038 v 1.26589 c 0,1.55263 1.25027,2.80239 2.80291,2.80239 h 25.079433 c 1.55263,0 2.80291,-1.24976 2.80291,-2.80239 v -1.26589 c 0,1.55265 -1.25028,2.80291 -2.80291,2.80291 H 95.226087 c -1.55264,0 -2.80291,-1.25026 -2.80291,-2.80291 z" />
    <rect
       style="fill:#00cc00;fill-opacity:1;fill-rule:evenodd;stroke:#000000;stroke-width:0.593539;stroke-linecap:square;stroke-linejoin:round;paint-order:stroke fill markers"
       id="rect10"
       width="35.40646"
       height="19.40646"
       x="51.218056"
       y="36.216431"
       ry="3.5449636"
       inkscape:export-filename="BrickGreen.svg"
       inkscape:export-xdpi="96"
       inkscape:export-ydpi="96" />
    <rect
       style="fill:#ffffff;fill-rule:evenodd;stroke:#000000;stroke-width:0.531782;stroke-linecap:square;stroke-linejoin:round;paint-order:stroke fill markers"
       id="rect11"
       width="33.213406"
       height="16.606703"
       x="52.245522"
       y="37.519936"
       ry="3.0335343" />
    <rect
       style="fill:#00cc00;fill-opacity:1;fill-rule:evenodd;stroke:#000000;stroke-width:0.499999;stroke-linecap:square;stroke-linejoin:round;paint-order:stroke fill markers"
       id="rect12"
       width="31.228359"
       height="15.61418"
       x="53.14045"
       y="38.024529"
       ry="2.8522305" />
    <path
       id="path12"
       style="fill:#77ff77;fill-opacity:1;fill-rule:evenodd;stroke:none;stroke-width:0.4913;stroke-linecap:square;stroke-linejoin:round;paint-order:stroke fill markers"
       d="m 53.412025,49.195038 v 1.26589 c 0,1.55263 1.25027,2.80239 2.80291,2.80239 h 25.079433 c 1.55263,0 2.80291,-1.24976 2.80291,-2.80239 v -1.26589 c 0,1.55265 -1.25028,2.80291 -2.80291,2.80291 H 56.214935 c -1.55264,0 -2.80291,-1.25026 -2.80291,-2.80291 z" />
    <rect
       style="fill:#404040;fill-rule:evenodd;stroke:none;stroke-width:0.620804;stroke-linecap:square;stroke-linejoin:round;paint-order:stroke fill markers"
       id="rect20"
       width="16.808563"
       height="262.85794"
       x="125.28117"
       y="-208.8412"
       ry="4.4285851"
       transform="rotate(90)"
       inkscape:export-filename="Wall.svg"
       inkscape:export-xdpi="96"
       inkscape:export-ydpi="96" />
  </g>
</svg>
