<?xml version="1.0" encoding="UTF-8" standalone="no"?>
<!-- Created with Inkscape (http://www.inkscape.org/) -->

<svg
   width="57.457634mm"
   height="31.915333mm"
   viewBox="0 0 57.457634 31.915333"
   version="1.1"
   id="svg1"
   inkscape:version="1.3.2 (091e20e, 2023-11-25, custom)"
   sodipodi:docname="Racket.svg"
   xml:space="preserve"
   xmlns:inkscape="http://www.inkscape.org/namespaces/inkscape"
   xmlns:sodipodi="http://sodipodi.sourceforge.net/DTD/sodipodi-0.dtd"
   xmlns="http://www.w3.org/2000/svg"
   xmlns:svg="http://www.w3.org/2000/svg"><sodipodi:namedview
     id="namedview1"
     pagecolor="#ffffff"
     bordercolor="#000000"
     borderopacity="0.25"
     inkscape:showpageshadow="2"
     inkscape:pageopacity="0.0"
     inkscape:pagecheckerboard="0"
     inkscape:deskcolor="#d1d1d1"
     inkscape:document-units="mm"
     inkscape:zoom="8.1336326"
     inkscape:cx="40.264912"
     inkscape:cy="84.525578"
     inkscape:window-width="1920"
     inkscape:window-height="1001"
     inkscape:window-x="-7"
     inkscape:window-y="-7"
     inkscape:window-maximized="1"
     inkscape:current-layer="layer1" /><defs
     id="defs1" /><g
     inkscape:label="Layer 1"
     inkscape:groupmode="layer"
     id="layer1"
     transform="translate(-103.5896,-196.22085)"><g
       id="g55"
       style="fill:#d3d3d3;fill-opacity:1"
       transform="matrix(-0.90081596,0.10667352,-0.25535609,-0.37631064,228.58419,213.76393)"
       inkscape:export-filename="Racket.svg"
       inkscape:export-xdpi="96"
       inkscape:export-ydpi="96"><rect
         style="fill:#d3d3d3;fill-opacity:1;fill-rule:evenodd;stroke:none;stroke-width:0.851913;stroke-linecap:square;stroke-linejoin:round;stroke-dasharray:none;paint-order:stroke fill markers"
         id="rect49"
         width="29.536821"
         height="1.2519312"
         x="-42.306355"
         y="87.346443"
         transform="rotate(-89.173453)"
         ry="0.6259656" /><rect
         style="fill:#d3d3d3;fill-opacity:1;fill-rule:evenodd;stroke:none;stroke-width:0.851913;stroke-linecap:square;stroke-linejoin:round;stroke-dasharray:none;paint-order:stroke fill markers"
         id="rect50"
         width="29.536821"
         height="1.2519312"
         x="-42.306355"
         y="90.859634"
         transform="rotate(-89.173453)"
         ry="0.6259656" /><rect
         style="fill:#d3d3d3;fill-opacity:1;fill-rule:evenodd;stroke:none;stroke-width:0.851913;stroke-linecap:square;stroke-linejoin:round;stroke-dasharray:none;paint-order:stroke fill markers"
         id="rect51"
         width="29.536821"
         height="1.2519312"
         x="-42.306355"
         y="93.592117"
         transform="rotate(-89.173453)"
         ry="0.6259656" /><rect
         style="fill:#d3d3d3;fill-opacity:1;fill-rule:evenodd;stroke:none;stroke-width:0.851913;stroke-linecap:square;stroke-linejoin:round;stroke-dasharray:none;paint-order:stroke fill markers"
         id="rect52"
         width="29.536821"
         height="1.2519312"
         x="-42.306355"
         y="96.584831"
         transform="rotate(-89.173453)"
         ry="0.6259656" /><rect
         style="fill:#d3d3d3;fill-opacity:1;fill-rule:evenodd;stroke:none;stroke-width:0.851913;stroke-linecap:square;stroke-linejoin:round;stroke-dasharray:none;paint-order:stroke fill markers"
         id="rect53"
         width="29.536821"
         height="1.2519312"
         x="-42.306355"
         y="84.093491"
         transform="rotate(-89.173453)"
         ry="0.6259656" /><rect
         style="fill:#d3d3d3;fill-opacity:1;fill-rule:evenodd;stroke:none;stroke-width:0.809579;stroke-linecap:square;stroke-linejoin:round;stroke-dasharray:none;paint-order:stroke fill markers"
         id="rect54"
         width="26.674221"
         height="1.2519312"
         x="-41.005173"
         y="81.230888"
         transform="rotate(-89.173453)"
         ry="0.6259656" /><rect
         style="fill:#d3d3d3;fill-opacity:1;fill-rule:evenodd;stroke:none;stroke-width:0.809579;stroke-linecap:square;stroke-linejoin:round;stroke-dasharray:none;paint-order:stroke fill markers"
         id="rect55"
         width="26.674221"
         height="1.2519312"
         x="-41.005173"
         y="78.238174"
         transform="rotate(-89.173453)"
         ry="0.6259656" /></g><g
       id="g48"
       style="fill:#d3d3d3;fill-opacity:1"
       transform="matrix(0.01457103,0.421915,-1.0099841,0.00608696,169.76066,175.10463)"><rect
         style="fill:#d3d3d3;fill-opacity:1;fill-rule:evenodd;stroke:none;stroke-width:0.851913;stroke-linecap:square;stroke-linejoin:round;stroke-dasharray:none;paint-order:stroke fill markers"
         id="rect45"
         width="29.536821"
         height="1.2519312"
         x="-42.306355"
         y="87.346443"
         transform="rotate(-89.173453)"
         ry="0.6259656" /><rect
         style="fill:#d3d3d3;fill-opacity:1;fill-rule:evenodd;stroke:none;stroke-width:0.851913;stroke-linecap:square;stroke-linejoin:round;stroke-dasharray:none;paint-order:stroke fill markers"
         id="rect46"
         width="29.536821"
         height="1.2519312"
         x="-42.306355"
         y="90.859634"
         transform="rotate(-89.173453)"
         ry="0.6259656" /><rect
         style="fill:#d3d3d3;fill-opacity:1;fill-rule:evenodd;stroke:none;stroke-width:0.851913;stroke-linecap:square;stroke-linejoin:round;stroke-dasharray:none;paint-order:stroke fill markers"
         id="rect47"
         width="29.536821"
         height="1.2519312"
         x="-42.306355"
         y="93.592117"
         transform="rotate(-89.173453)"
         ry="0.6259656" /><rect
         style="fill:#d3d3d3;fill-opacity:1;fill-rule:evenodd;stroke:none;stroke-width:0.851913;stroke-linecap:square;stroke-linejoin:round;stroke-dasharray:none;paint-order:stroke fill markers"
         id="rect48"
         width="29.536821"
         height="1.2519312"
         x="-42.306355"
         y="96.584831"
         transform="rotate(-89.173453)"
         ry="0.6259656" /><rect
         style="fill:#d3d3d3;fill-opacity:1;fill-rule:evenodd;stroke:none;stroke-width:0.851913;stroke-linecap:square;stroke-linejoin:round;stroke-dasharray:none;paint-order:stroke fill markers"
         id="rect44"
         width="29.536821"
         height="1.2519312"
         x="-42.306355"
         y="84.093491"
         transform="rotate(-89.173453)"
         ry="0.6259656" /><rect
         style="fill:#d3d3d3;fill-opacity:1;fill-rule:evenodd;stroke:none;stroke-width:0.809579;stroke-linecap:square;stroke-linejoin:round;stroke-dasharray:none;paint-order:stroke fill markers"
         id="rect43"
         width="26.674221"
         height="1.2519312"
         x="-41.005173"
         y="81.230888"
         transform="rotate(-89.173453)"
         ry="0.6259656" /><rect
         style="fill:#d3d3d3;fill-opacity:1;fill-rule:evenodd;stroke:none;stroke-width:0.809579;stroke-linecap:square;stroke-linejoin:round;stroke-dasharray:none;paint-order:stroke fill markers"
         id="rect42"
         width="26.674221"
         height="1.2519312"
         x="-41.005173"
         y="78.238174"
         transform="rotate(-89.173453)"
         ry="0.6259656" /></g><path
       id="rect8"
       style="fill:#000000;fill-rule:evenodd;stroke:#000000;stroke-width:0.49999897;stroke-linecap:square;stroke-linejoin:round;paint-order:stroke fill markers;stroke-dasharray:none"
       d="m 127.60632,212.12931 c 0.0228,1.57997 -1.23082,2.87028 -2.81079,2.89308 l -20.79152,0.29996 c -0.8817,0.0127 -0.0823,-5.70387 -0.0823,-5.70387 l 20.79152,-0.29996 c 1.57997,-0.0228 2.87028,1.23082 2.89308,2.81079 z"
       sodipodi:nodetypes="ssscss" /><path
       id="path42"
       style="fill:#003399;fill-rule:evenodd;stroke:#003399;stroke-width:0.652852;stroke-linecap:square;stroke-linejoin:round;stroke-dasharray:none;paint-order:stroke fill markers"
       d="m 141.73655,206.0249 a 6.5224501,17.378643 89.922488 0 0 -17.15168,6.6262 6.5224501,17.378643 89.922488 0 0 17.60215,6.4171 6.5224501,17.378643 89.922488 0 0 17.1522,-6.62643 6.5224501,17.378643 89.922488 0 0 -17.60267,-6.41687 z m -0.2422,0.86175 a 5.4958756,14.643401 89.922488 0 1 14.83201,5.40685 5.4958756,14.643401 89.922488 0 1 -14.45253,5.58347 5.4958756,14.643401 89.922488 0 1 -14.83201,-5.40707 5.4958756,14.643401 89.922488 0 1 14.45253,-5.58325 z" /><path
       id="path64"
       style="fill:#3366cc;fill-rule:evenodd;stroke:#003399;stroke-width:0.652852;stroke-linecap:square;stroke-linejoin:round;stroke-dasharray:none;paint-order:stroke fill markers"
       d="m 141.73646,206.0637 a 6.5224501,17.378643 89.922488 0 0 -14.39772,3.02353 h 2.77431 a 5.4958756,14.643401 89.922488 0 1 11.38121,-2.16178 5.4958756,14.643401 89.922488 0 1 11.8489,2.16178 h 3.28951 a 6.5224501,17.378643 89.922488 0 0 -14.89621,-3.02353 z" /><g
       id="g5"
       transform="translate(0,-8.6026952)"><path
         id="path1"
         style="fill:#e96c2a;fill-opacity:1;fill-rule:evenodd;stroke:#000000;stroke-width:0.2;stroke-linecap:round;stroke-linejoin:miter;stroke-dasharray:none;stroke-opacity:1;paint-order:stroke fill markers"
         d="m 104.22832,218.21633 -0.30644,0.005 c 0,0 -0.71635,5.12548 -0.0429,5.65651 l 3.32951,-0.0476 c 0.112,-0.0826 0.14714,-0.23597 0.0755,-0.35915 z" /><path
         id="rect1"
         style="fill:#e96c2a;stroke:#000000;stroke-width:0.2;stroke-linecap:round;stroke-opacity:1"
         d="m 107.60434,218.16775 -3.55172,0.0512 c -0.017,0.0673 -0.009,0.14112 0.0289,0.20618 l 3.17138,5.4529 3.36001,-0.0481 c 0.112,-0.0826 0.14709,-0.23597 0.0754,-0.35915 z" /><path
         id="path2"
         style="fill:#e96c2a;stroke:#000000;stroke-width:0.2;stroke-linecap:round;stroke-opacity:1"
         d="m 111.19263,218.16775 -3.55172,0.0512 c -0.017,0.0674 -0.009,0.14112 0.0289,0.20619 l 3.17138,5.45289 3.36001,-0.048 c 0.112,-0.0826 0.14709,-0.23598 0.0754,-0.35916 z" /><path
         id="path3"
         style="fill:#e96c2a;stroke:#000000;stroke-width:0.2;stroke-linecap:round;stroke-opacity:1"
         d="m 114.78092,218.16775 -3.55172,0.0512 c -0.017,0.0674 -0.009,0.14112 0.0289,0.20619 l 3.17138,5.45289 3.36001,-0.048 c 0.112,-0.0826 0.14709,-0.23598 0.0754,-0.35916 z" /><path
         id="path4"
         style="fill:#e96c2a;stroke:#000000;stroke-width:0.2;stroke-linecap:round;stroke-opacity:1"
         d="m 118.36921,218.16775 -3.55172,0.0512 c -0.017,0.0674 -0.009,0.14112 0.0289,0.20619 l 3.17138,5.45289 3.36001,-0.048 c 0.112,-0.0826 0.14709,-0.23598 0.0754,-0.35916 z" /></g></g></svg>
