<?xml version="1.0" encoding="UTF-8" standalone="no"?>
<!-- Created with Inkscape (http://www.inkscape.org/) -->

<svg
   width="102.29132"
   height="94.422729"
   viewBox="0 0 27.064578 24.98268"
   version="1.1"
   id="svg1"
   inkscape:version="1.3.2 (091e20e, 2023-11-25, custom)"
   sodipodi:docname="TestScene.svg"
   xml:space="preserve"
   xmlns:inkscape="http://www.inkscape.org/namespaces/inkscape"
   xmlns:sodipodi="http://sodipodi.sourceforge.net/DTD/sodipodi-0.dtd"
   xmlns="http://www.w3.org/2000/svg"
   xmlns:svg="http://www.w3.org/2000/svg"><sodipodi:namedview
     id="namedview1"
     pagecolor="#ffffff"
     bordercolor="#000000"
     borderopacity="0.25"
     inkscape:showpageshadow="2"
     inkscape:pageopacity="0.0"
     inkscape:pagecheckerboard="0"
     inkscape:deskcolor="#d1d1d1"
     inkscape:document-units="mm"
     inkscape:zoom="1.4378367"
     inkscape:cx="223.94755"
     inkscape:cy="1085.311"
     inkscape:window-width="1920"
     inkscape:window-height="1010"
     inkscape:window-x="1699"
     inkscape:window-y="-6"
     inkscape:window-maximized="1"
     inkscape:current-layer="layer1" /><defs
     id="defs1" /><g
     inkscape:label="Layer 1"
     inkscape:groupmode="layer"
     id="layer1"
     transform="translate(-57.053453,-254.19891)"><rect
       style="fill:#242726;fill-opacity:1;fill-rule:evenodd;stroke:none;stroke-width:0.743984;stroke-linecap:square;stroke-linejoin:round;stroke-dasharray:none;paint-order:stroke fill markers"
       id="rect1-0-2"
       width="27.064579"
       height="24.982685"
       x="57.053455"
       y="254.19893"
       ry="2.466794"
       inkscape:export-filename="ThinkingFace.svg"
       inkscape:export-xdpi="96"
       inkscape:export-ydpi="96" /><path
       id="path13"
       style="fill:#72ebf5;fill-opacity:1;fill-rule:evenodd;stroke:none;stroke-width:0.401351;stroke-linecap:square;stroke-linejoin:round;stroke-dasharray:none;paint-order:stroke fill markers"
       d="m 64.61867,268.8774 a 6.3320548,4.7000816 0 0 0 -0.174738,1.06398 6.3320548,4.7000816 0 0 0 6.33205,4.70004 6.3320548,4.7000816 0 0 0 6.332049,-4.70004 6.3320548,4.7000816 0 0 0 -0.04018,-0.51851 6.3320548,4.7000816 0 0 1 -6.161201,3.65187 6.3320548,4.7000816 0 0 1 -6.287976,-4.19734 z" /><path
       id="path14"
       style="fill:#72ebf5;fill-opacity:1;fill-rule:evenodd;stroke:none;stroke-width:0.272241;stroke-linecap:square;stroke-linejoin:round;stroke-dasharray:none;paint-order:stroke fill markers"
       d="m 61.250191,264.32252 a 4.2951008,3.1881159 0 0 1 -0.118526,-0.72172 4.2951008,3.1881159 0 0 1 4.295097,-3.18808 4.2951008,3.1881159 0 0 1 4.295098,3.18808 4.2951008,3.1881159 0 0 1 -0.02725,0.35172 4.2951008,3.1881159 0 0 0 -4.179208,-2.4771 4.2951008,3.1881159 0 0 0 -4.265202,2.8471 z" /><path
       id="path15"
       style="fill:#72ebf5;fill-opacity:1;fill-rule:evenodd;stroke:none;stroke-width:0.272241;stroke-linecap:square;stroke-linejoin:round;stroke-dasharray:none;paint-order:stroke fill markers"
       d="m 71.739039,264.32252 a 4.2951008,3.1881159 0 0 1 -0.118526,-0.72172 4.2951008,3.1881159 0 0 1 4.295097,-3.18808 4.2951008,3.1881159 0 0 1 4.295098,3.18808 4.2951008,3.1881159 0 0 1 -0.02725,0.35172 4.2951008,3.1881159 0 0 0 -4.179208,-2.4771 4.2951008,3.1881159 0 0 0 -4.265202,2.8471 z" /></g></svg>
